<svg xmlns="http://www.w3.org/2000/svg" xmlns:xlink="http://www.w3.org/1999/xlink" width="48" zoomAndPan="magnify" viewBox="0 0 36 36.000001" height="48" preserveAspectRatio="xMidYMid meet" version="1.2"><defs><clipPath id="71b0eaf341"><path d="M 6.171875 3.503906 L 29.523438 3.503906 L 29.523438 31.234375 L 6.171875 31.234375 Z M 6.171875 3.503906 "/></clipPath><clipPath id="9b0ac6e379"><path d="M 12.042969 12.449219 L 21 12.449219 L 21 19 L 12.042969 19 Z M 12.042969 12.449219 "/></clipPath><clipPath id="d205ea24e3"><path d="M 12.042969 20 L 16 20 L 16 22.667969 L 12.042969 22.667969 Z M 12.042969 20 "/></clipPath><clipPath id="4040ad7f65"><path d="M 17 20 L 20 20 L 20 22.667969 L 17 22.667969 Z M 17 20 "/></clipPath><clipPath id="564c35571a"><path d="M 18 17 L 23.71875 17 L 23.71875 22 L 18 22 Z M 18 17 "/></clipPath><clipPath id="b04d9e08e1"><path d="M 18 15 L 23.71875 15 L 23.71875 20 L 18 20 Z M 18 15 "/></clipPath><clipPath id="513df3ef12"><path d="M 12.042969 12.449219 L 15 12.449219 L 15 16 L 12.042969 16 Z M 12.042969 12.449219 "/></clipPath></defs><g id="8d7cd9e736"><g clip-rule="nonzero" clip-path="url(#71b0eaf341)"><path style=" stroke:none;fill-rule:nonzero;fill:#000000;fill-opacity:1;" d="M 29.269531 7.542969 C 28.921875 7.148438 28.347656 7.25 27.886719 7.148438 C 24.550781 6.59375 21.414062 5.226562 18.414062 3.695312 C 18.273438 3.628906 18.125 3.570312 17.976562 3.515625 L 17.757812 3.515625 C 17.238281 3.671875 16.777344 3.96875 16.289062 4.199219 C 13.660156 5.492188 10.902344 6.605469 8.007812 7.117188 C 7.589844 7.199219 7.15625 7.195312 6.746094 7.316406 C 6.425781 7.460938 6.1875 7.800781 6.203125 8.160156 C 6.171875 10.160156 6.242188 12.164062 6.398438 14.164062 C 6.625 16.703125 6.992188 19.257812 7.84375 21.671875 C 8.257812 22.792969 8.78125 23.894531 9.574219 24.796875 C 11.738281 27.363281 14.421875 29.464844 17.363281 31.0625 C 17.488281 31.128906 17.617188 31.179688 17.75 31.21875 L 17.941406 31.21875 C 18.464844 31.070312 18.898438 30.71875 19.375 30.472656 C 21.652344 29.121094 23.738281 27.441406 25.53125 25.488281 C 26.074219 24.875 26.628906 24.257812 27.019531 23.53125 C 27.921875 21.925781 28.398438 20.121094 28.753906 18.324219 C 29.367188 15.050781 29.523438 11.707031 29.507812 8.382812 C 29.515625 8.085938 29.492188 7.761719 29.269531 7.542969 Z M 28 17.589844 C 27.632812 19.605469 27.15625 21.660156 26.074219 23.425781 C 25.113281 24.820312 23.875 25.996094 22.609375 27.105469 C 21.148438 28.355469 19.539062 29.425781 17.851562 30.347656 C 14.894531 28.738281 12.183594 26.621094 10.046875 24.007812 C 8.945312 22.59375 8.421875 20.835938 8.011719 19.117188 C 7.214844 15.511719 7.023438 11.800781 7.078125 8.117188 C 10.894531 7.6875 14.460938 6.113281 17.855469 4.386719 C 21.246094 6.113281 24.816406 7.683594 28.636719 8.117188 C 28.683594 11.28125 28.53125 14.464844 28 17.589844 Z M 28 17.589844 "/></g><path style=" stroke:none;fill-rule:nonzero;fill:#000000;fill-opacity:1;" d="M 8.792969 9.621094 C 8.855469 13.03125 9.050781 16.472656 9.949219 19.777344 C 10.300781 20.992188 10.753906 22.230469 11.621094 23.179688 C 13.363281 25.269531 15.523438 26.976562 17.855469 28.363281 C 20.332031 26.886719 22.621094 25.042969 24.421875 22.773438 C 25.273438 21.601562 25.679688 20.175781 26.011719 18.785156 C 26.683594 15.78125 26.863281 12.691406 26.914062 9.621094 C 23.742188 9.007812 20.734375 7.769531 17.855469 6.328125 C 14.972656 7.769531 11.964844 9.011719 8.792969 9.621094 Z M 8.792969 9.621094 "/><g clip-rule="nonzero" clip-path="url(#9b0ac6e379)"><path style=" stroke:none;fill-rule:nonzero;fill:#ffffff;fill-opacity:1;" d="M 18.269531 18.957031 L 12.765625 18.957031 C 12.367188 18.957031 12.042969 18.632812 12.042969 18.234375 L 12.042969 13.207031 C 12.042969 12.808594 12.367188 12.484375 12.765625 12.484375 L 19.976562 12.484375 C 20.375 12.484375 20.699219 12.808594 20.699219 13.207031 L 20.699219 15.101562 C 20.699219 15.152344 20.65625 15.195312 20.605469 15.195312 C 20.554688 15.195312 20.511719 15.152344 20.511719 15.101562 L 20.511719 13.207031 C 20.511719 12.910156 20.273438 12.671875 19.976562 12.671875 L 12.765625 12.671875 C 12.472656 12.671875 12.230469 12.910156 12.230469 13.207031 L 12.230469 18.234375 C 12.230469 18.53125 12.472656 18.773438 12.765625 18.773438 L 18.269531 18.773438 C 18.320312 18.773438 18.363281 18.8125 18.363281 18.863281 C 18.363281 18.917969 18.320312 18.957031 18.269531 18.957031 "/></g><path style=" stroke:none;fill-rule:nonzero;fill:#ffffff;fill-opacity:1;" d="M 18.269531 19.933594 L 13.824219 19.933594 C 13.796875 19.933594 13.765625 19.917969 13.75 19.890625 C 13.730469 19.867188 13.726562 19.832031 13.738281 19.804688 L 14.125 18.832031 C 14.144531 18.78125 14.199219 18.761719 14.246094 18.777344 C 14.292969 18.796875 14.316406 18.851562 14.296875 18.898438 L 13.964844 19.746094 L 18.269531 19.746094 C 18.320312 19.746094 18.363281 19.785156 18.363281 19.839844 C 18.363281 19.890625 18.320312 19.933594 18.269531 19.933594 "/><g clip-rule="nonzero" clip-path="url(#d205ea24e3)"><path style=" stroke:none;fill-rule:nonzero;fill:#ffffff;fill-opacity:1;" d="M 12.457031 20.921875 C 12.332031 20.921875 12.230469 21.023438 12.230469 21.148438 L 12.230469 21.785156 C 12.230469 21.910156 12.332031 22.011719 12.457031 22.011719 L 15.171875 22.011719 L 15.171875 20.921875 Z M 15.261719 22.199219 L 12.457031 22.199219 C 12.230469 22.199219 12.042969 22.015625 12.042969 21.785156 L 12.042969 21.148438 C 12.042969 20.921875 12.230469 20.734375 12.457031 20.734375 L 15.261719 20.734375 C 15.316406 20.734375 15.355469 20.777344 15.355469 20.828125 L 15.355469 22.105469 C 15.355469 22.160156 15.316406 22.199219 15.261719 22.199219 "/></g><path style=" stroke:none;fill-rule:nonzero;fill:#ffffff;fill-opacity:1;" d="M 17.492188 21.839844 L 15.261719 21.839844 C 15.210938 21.839844 15.171875 21.800781 15.171875 21.75 C 15.171875 21.699219 15.210938 21.65625 15.261719 21.65625 L 17.398438 21.65625 L 17.398438 21.28125 L 15.261719 21.28125 C 15.210938 21.28125 15.171875 21.238281 15.171875 21.1875 C 15.171875 21.136719 15.210938 21.09375 15.261719 21.09375 L 17.492188 21.09375 C 17.542969 21.09375 17.585938 21.136719 17.585938 21.1875 L 17.585938 21.75 C 17.585938 21.800781 17.542969 21.839844 17.492188 21.839844 "/><g clip-rule="nonzero" clip-path="url(#4040ad7f65)"><path style=" stroke:none;fill-rule:nonzero;fill:#ffffff;fill-opacity:1;" d="M 18.40625 22.335938 C 18.390625 22.335938 18.375 22.332031 18.363281 22.324219 L 17.449219 21.832031 C 17.402344 21.804688 17.386719 21.75 17.410156 21.703125 C 17.433594 21.660156 17.492188 21.640625 17.535156 21.667969 L 18.410156 22.140625 L 19.289062 21.792969 L 19.289062 21.144531 L 18.410156 20.796875 L 17.535156 21.269531 C 17.492188 21.292969 17.433594 21.277344 17.410156 21.230469 C 17.386719 21.1875 17.402344 21.128906 17.449219 21.105469 L 18.363281 20.609375 C 18.386719 20.597656 18.414062 20.597656 18.441406 20.605469 L 19.417969 20.992188 C 19.453125 21.007812 19.476562 21.042969 19.476562 21.082031 L 19.476562 21.855469 C 19.476562 21.894531 19.453125 21.929688 19.417969 21.941406 L 18.441406 22.328125 C 18.429688 22.332031 18.417969 22.335938 18.40625 22.335938 "/></g><g clip-rule="nonzero" clip-path="url(#564c35571a)"><path style=" stroke:none;fill-rule:nonzero;fill:#ffffff;fill-opacity:1;" d="M 21.246094 21.066406 C 21.066406 21.066406 20.902344 20.9375 20.867188 20.75 L 20.800781 20.40625 C 20.488281 20.371094 20.1875 20.265625 19.921875 20.097656 L 19.65625 20.328125 C 19.496094 20.46875 19.25 20.449219 19.109375 20.289062 L 18.804688 19.9375 C 18.738281 19.859375 18.707031 19.757812 18.714844 19.65625 C 18.722656 19.550781 18.769531 19.457031 18.847656 19.390625 L 19.113281 19.160156 C 18.988281 18.875 18.925781 18.558594 18.9375 18.246094 L 18.605469 18.128906 C 18.507812 18.097656 18.429688 18.027344 18.386719 17.933594 C 18.339844 17.839844 18.335938 17.734375 18.367188 17.636719 L 18.4375 17.445312 C 18.453125 17.394531 18.507812 17.371094 18.554688 17.386719 C 18.601562 17.402344 18.628906 17.457031 18.613281 17.503906 L 18.542969 17.699219 C 18.527344 17.75 18.53125 17.804688 18.554688 17.851562 C 18.578125 17.898438 18.617188 17.9375 18.667969 17.953125 L 19.066406 18.09375 C 19.105469 18.105469 19.132812 18.144531 19.128906 18.1875 C 19.105469 18.515625 19.167969 18.847656 19.308594 19.144531 C 19.328125 19.183594 19.320312 19.230469 19.285156 19.257812 L 18.96875 19.53125 C 18.925781 19.566406 18.902344 19.613281 18.898438 19.667969 C 18.894531 19.722656 18.914062 19.773438 18.949219 19.816406 L 19.25 20.167969 C 19.324219 20.25 19.453125 20.261719 19.535156 20.1875 L 19.855469 19.914062 C 19.886719 19.886719 19.933594 19.882812 19.96875 19.90625 C 20.242188 20.089844 20.558594 20.199219 20.886719 20.226562 C 20.929688 20.230469 20.964844 20.261719 20.972656 20.300781 L 21.050781 20.71875 C 21.070312 20.828125 21.175781 20.898438 21.285156 20.878906 L 21.742188 20.789062 C 21.851562 20.769531 21.921875 20.664062 21.902344 20.554688 L 21.824219 20.140625 C 21.816406 20.101562 21.835938 20.058594 21.875 20.039062 C 22.171875 19.898438 22.425781 19.675781 22.613281 19.402344 C 22.636719 19.367188 22.679688 19.355469 22.71875 19.367188 L 23.117188 19.507812 C 23.222656 19.542969 23.339844 19.488281 23.375 19.382812 L 23.441406 19.191406 C 23.457031 19.140625 23.511719 19.117188 23.558594 19.132812 C 23.609375 19.148438 23.636719 19.203125 23.617188 19.25 L 23.550781 19.445312 C 23.480469 19.648438 23.257812 19.753906 23.058594 19.683594 L 22.726562 19.566406 C 22.539062 19.820312 22.296875 20.027344 22.019531 20.175781 L 22.085938 20.519531 C 22.125 20.730469 21.988281 20.933594 21.777344 20.972656 L 21.320312 21.058594 C 21.296875 21.066406 21.269531 21.066406 21.246094 21.066406 "/></g><g clip-rule="nonzero" clip-path="url(#b04d9e08e1)"><path style=" stroke:none;fill-rule:nonzero;fill:#ffffff;fill-opacity:1;" d="M 23.53125 19.3125 C 23.519531 19.3125 23.507812 19.3125 23.5 19.308594 C 23.449219 19.292969 23.425781 19.238281 23.441406 19.191406 L 23.507812 18.996094 C 23.527344 18.945312 23.523438 18.890625 23.5 18.84375 C 23.476562 18.796875 23.4375 18.757812 23.386719 18.742188 L 22.988281 18.601562 C 22.949219 18.589844 22.921875 18.550781 22.925781 18.507812 C 22.949219 18.175781 22.886719 17.847656 22.746094 17.550781 C 22.726562 17.511719 22.734375 17.464844 22.769531 17.4375 L 23.085938 17.164062 C 23.171875 17.089844 23.179688 16.964844 23.105469 16.878906 L 22.804688 16.527344 C 22.730469 16.445312 22.601562 16.433594 22.519531 16.507812 L 22.199219 16.78125 C 22.167969 16.808594 22.121094 16.8125 22.085938 16.789062 C 21.8125 16.605469 21.496094 16.492188 21.167969 16.46875 C 21.125 16.464844 21.089844 16.433594 21.082031 16.390625 L 21.003906 15.976562 C 20.984375 15.867188 20.878906 15.796875 20.769531 15.816406 L 20.3125 15.90625 C 20.257812 15.914062 20.214844 15.945312 20.183594 15.988281 C 20.152344 16.035156 20.140625 16.085938 20.152344 16.140625 L 20.230469 16.554688 C 20.238281 16.59375 20.21875 16.636719 20.179688 16.65625 C 19.882812 16.796875 19.628906 17.019531 19.441406 17.292969 C 19.417969 17.328125 19.375 17.339844 19.332031 17.328125 L 18.933594 17.1875 C 18.832031 17.152344 18.714844 17.207031 18.679688 17.3125 L 18.613281 17.503906 C 18.59375 17.554688 18.542969 17.578125 18.492188 17.5625 C 18.445312 17.546875 18.417969 17.492188 18.4375 17.445312 L 18.503906 17.25 C 18.574219 17.046875 18.796875 16.941406 18.996094 17.011719 L 19.328125 17.128906 C 19.515625 16.875 19.757812 16.667969 20.035156 16.519531 L 19.96875 16.175781 C 19.949219 16.074219 19.96875 15.96875 20.027344 15.882812 C 20.085938 15.800781 20.175781 15.742188 20.277344 15.722656 L 20.734375 15.636719 C 20.945312 15.59375 21.148438 15.734375 21.1875 15.941406 L 21.253906 16.289062 C 21.5625 16.324219 21.863281 16.429688 22.132812 16.59375 L 22.398438 16.367188 C 22.558594 16.226562 22.804688 16.246094 22.945312 16.40625 L 23.25 16.757812 C 23.386719 16.921875 23.371094 17.164062 23.207031 17.304688 L 22.941406 17.535156 C 23.066406 17.820312 23.125 18.136719 23.117188 18.449219 L 23.449219 18.566406 C 23.546875 18.597656 23.625 18.667969 23.667969 18.761719 C 23.714844 18.855469 23.71875 18.960938 23.683594 19.058594 L 23.617188 19.25 C 23.605469 19.289062 23.570312 19.3125 23.53125 19.3125 "/></g><path style=" stroke:none;fill-rule:nonzero;fill:#ffffff;fill-opacity:1;" d="M 21.027344 17.175781 C 20.851562 17.175781 20.679688 17.214844 20.515625 17.292969 C 20.234375 17.425781 20.023438 17.664062 19.921875 17.960938 C 19.707031 18.570312 20.03125 19.242188 20.640625 19.453125 C 20.9375 19.558594 21.253906 19.539062 21.535156 19.402344 C 21.820312 19.265625 22.03125 19.03125 22.132812 18.734375 C 22.238281 18.4375 22.21875 18.121094 22.082031 17.835938 C 21.945312 17.554688 21.710938 17.34375 21.414062 17.242188 C 21.285156 17.195312 21.15625 17.175781 21.027344 17.175781 Z M 21.027344 19.707031 C 20.878906 19.707031 20.726562 19.683594 20.578125 19.628906 C 19.871094 19.382812 19.496094 18.605469 19.746094 17.898438 C 19.863281 17.558594 20.109375 17.28125 20.4375 17.125 C 20.761719 16.964844 21.132812 16.945312 21.476562 17.066406 C 21.816406 17.183594 22.09375 17.429688 22.25 17.757812 C 22.410156 18.082031 22.429688 18.453125 22.308594 18.796875 C 22.191406 19.136719 21.945312 19.414062 21.617188 19.570312 C 21.429688 19.660156 21.230469 19.707031 21.027344 19.707031 "/><path style=" stroke:none;fill-rule:nonzero;fill:#ffffff;fill-opacity:1;" d="M 20.226562 18.585938 C 20.347656 18.246094 20.667969 18.019531 21.027344 18.019531 C 21.121094 18.019531 21.214844 18.035156 21.304688 18.066406 C 21.519531 18.140625 21.691406 18.292969 21.789062 18.496094 C 21.808594 18.53125 21.820312 18.570312 21.832031 18.605469 C 21.898438 18.398438 21.882812 18.175781 21.789062 17.980469 C 21.691406 17.777344 21.519531 17.621094 21.304688 17.546875 C 21.214844 17.515625 21.121094 17.5 21.027344 17.5 C 20.667969 17.5 20.347656 17.730469 20.226562 18.070312 C 20.167969 18.246094 20.164062 18.433594 20.222656 18.605469 C 20.222656 18.597656 20.226562 18.59375 20.226562 18.585938 "/><g clip-rule="nonzero" clip-path="url(#513df3ef12)"><path style=" stroke:none;fill-rule:nonzero;fill:#ffffff;fill-opacity:1;" d="M 12.554688 13.207031 L 12.554688 15.667969 L 14.976562 12.996094 L 12.765625 12.996094 C 12.652344 12.996094 12.554688 13.089844 12.554688 13.207031 "/></g></g></svg>